<?xml version="1.0" standalone="no"?>
<!DOCTYPE svg PUBLIC "-//W3C//DTD SVG 20010904//EN"
 "http://www.w3.org/TR/2001/REC-SVG-20010904/DTD/svg10.dtd">
<svg version="1.0" xmlns="http://www.w3.org/2000/svg"
 width="16.000000pt" height="16.000000pt" viewBox="0 0 16.000000 16.000000"
 preserveAspectRatio="xMidYMid meet">
<metadata>
Created by potrace 1.11, written by Peter Selinger 2001-2013
</metadata>
<g transform="translate(0.000000,16.000000) scale(0.003653,-0.003653)"
fill="#000000" stroke="none">
<path d="M1540 4212 l0 -167 -296 0 c-165 0 -298 -4 -301 -9 -3 -5 -6 -75 -6
-156 l0 -148 -141 0 c-78 0 -150 -1 -161 -1 -20 -1 -21 -7 -20 -156 l0 -155
-151 0 -152 0 0 -297 c0 -164 -1 -370 -1 -458 l-1 -161 -152 1 -153 0 -3
-1251 -2 -1250 155 -1 c85 0 156 3 156 8 1 5 3 72 4 149 1 77 3 143 4 148 0 4
65 7 143 7 79 -1 149 1 156 3 10 3 13 36 12 136 -1 72 -1 138 -1 147 1 14 20
16 150 16 l149 0 0 -131 c0 -72 1 -140 1 -151 1 -20 7 -21 139 -20 75 1 143 0
149 -3 9 -3 13 -34 12 -111 -1 -58 -1 -127 0 -152 l1 -46 313 1 312 1 1 300
c1 165 2 305 3 312 1 8 80 11 306 11 l305 0 -1 -232 c0 -127 0 -266 0 -308 l1
-76 298 0 c163 0 304 1 312 4 13 3 16 27 15 152 l0 147 161 0 162 0 0 140 c0
77 1 145 1 151 1 8 51 11 166 11 l164 -1 3 -150 3 -151 153 0 152 0 1 -30 c0
-16 1 -86 2 -155 l2 -125 155 0 155 0 0 1250 0 1250 -152 0 c-131 -1 -153 2
-154 15 0 8 -1 213 -3 455 l-2 440 -156 3 -156 2 0 145 c-1 80 -1 150 -1 155
-1 6 -66 10 -176 10 -175 0 -175 0 -176 23 0 12 -1 92 -1 178 l-1 156 -296 1
c-163 0 -301 1 -308 1 -8 1 -11 41 -11 134 0 72 -1 138 -1 145 -1 9 -132 12
-621 12 l-620 0 0 -168z m1563 -2047 c-7 -21 -12 -19 -10 4 0 11 5 18 9 15 4
-3 5 -11 1 -19z m2 -64 c3 -5 2 -12 -3 -15 -5 -3 -9 1 -9 9 0 17 3 19 12 6z
m0 -70 c3 -5 2 -12 -3 -15 -5 -3 -9 1 -9 9 0 17 3 19 12 6z m0 -40 c3 -5 2
-12 -3 -15 -5 -3 -9 1 -9 9 0 17 3 19 12 6z m0 -71 c3 -5 1 -10 -4 -10 -6 0
-11 5 -11 10 0 6 2 10 4 10 3 0 8 -4 11 -10z"/>
</g>
</svg>
